<svg xmlns="http://www.w3.org/2000/svg" viewBox="0 0 349.744 161.543"><g id="Layer_2" data-name="Layer 2"><g id="Layer_1-2" data-name="Layer 1"><path d="M260.109,101.524c-7.01-1.536-13.252-.39-19.374,1.624-3.47,1.142-6.753,2.924-10.271,3.828a36.548,36.548,0,0,1-11,1.5c-7.511-.443-13.08-4.089-15.442-12.151-5.943,7.8-13.028,12.994-22.963,12.319-9.845-.669-16.306-6.35-20.658-15.012-2.022,2.73-3.757,5.441-5.857,7.831-4.82,5.486-10.8,8.174-18.248,6.954-6.1-1-10.065-4.47-12.055-10.255-2.493-7.246-2.139-14.673-.678-21.97,1.661-8.291,3.945-16.457,5.847-24.223l-21.835.875c-1.366,5.49-2.6,11.513-4.382,17.368-2.991,9.821-7.244,19.094-15.2,25.95-12.433,10.716-26.967,14.551-43.051,11.483C36.432,106.02,30.3,100.779,26,91.863a12.848,12.848,0,0,1-1.24,2.376,42.792,42.792,0,0,1-17.2,11.647c-1.9.719-3.324.329-4.248-1.364a61.928,61.928,0,0,1-3-6.305c-.672-1.651-.35-3.135,1.5-3.918C14.589,88.906,20.8,78.582,23.058,65.531,26.014,48.477,28.7,31.377,31.5,14.3a10.059,10.059,0,0,0,.006-1.273c-4.2,0-8.347,0-12.489,0-1.167,0-2.334.013-3.5-.028-1.965-.069-2.943-1.085-2.652-3.064.364-2.468.814-4.923,1.251-7.38a2.868,2.868,0,0,1,3.2-2.515c7.166,0,14.334-.1,21.5.041,4.025.078,7.284,4.638,6.582,9.26-1.174,7.732-2.577,15.43-3.88,23.143-.26,1.542-.5,3.086-.742,4.544,3.333-1.112,6.462-2.637,9.751-3.164C61.5,32.1,70.2,36.162,76.244,45.364c6.162,9.383,6.7,19.877,4.759,30.562-.8,4.373-2.321,8.614-3.273,13.225,1.77-2.1,3.7-4.078,5.28-6.311,5.83-8.256,8.763-17.7,10.694-27.469,1.113-5.627,1.811-11.339,2.606-17.025.514-3.679.968-4.154,4.746-4.16,1.5,0,3.005.08,4.5-.018,2.356-.154,3.432.823,3.232,3.215-.083.991-.014,1.994-.014,3.128,5.633,0,11.254.232,16.844-.078,4.051-.224,8.05-1.263,12.094-1.766,5.054-.629,8.653,4.491,6.927,9.425-2.8,8-5.66,15.984-8,24.118a40.418,40.418,0,0,0-1.445,17.549c.389,2.466,1.177,4.858,3.716,5.813,2.668,1,4.875-.387,6.776-2.137,5.017-4.618,7.53-10.686,9.568-16.983,2.073-6.407,3.811-12.931,6.089-19.262,2.875-7.993,7.34-14.965,14.789-19.537a26.216,26.216,0,0,1,20.105-3.631c5,1.131,8.535,4.293,11.541,9.261.427-2.442.79-4.227,1.04-6.026.3-2.18,1.392-3.238,3.685-3.095,1.909.119,3.832,0,5.748.029,3.143.042,4,1.07,3.442,4.209-1.215,6.884-2.656,13.734-3.645,20.649-1.2,8.392-2.122,16.829-2.95,25.267a15.383,15.383,0,0,0,.83,5.887c1.862,5.962,7.686,8.536,13.122,5.411a26.177,26.177,0,0,0,8-6.985c9.8-13.463,19.278-27.156,28.863-40.774.079-.111.045-.3.109-.832h-2.643c-8,0-16,.012-24-.006-3.656-.008-4.453-.975-3.846-4.562q.5-2.954,1.034-5.9a2.644,2.644,0,0,1,2.971-2.379q19.5.036,39,0c2.279-.006,3.484,1.329,4.364,3.142,1.088,2.244,1.736,4.451.094,6.82-5.646,8.143-11.2,16.348-16.82,24.51-4.674,6.79-9.389,13.553-14.084,20.329-.365.527-.712,1.066-1.141,1.711,3.271,0,6.38-.4,9.334.1,3.712.635,7.291,2.033,10.94,3.058.713.2,1.648.523,2.2.242,5.557-2.817,11.055-5.749,16.09-8.4-.256-5.685-.928-11.151-.667-16.572.76-15.769,11.95-30.481,26.027-34.563,6.706-1.945,13.378-2.07,19.456,2.031,6.447,4.35,9.2,12.98,7.207,21.9-1.777,7.973-6.229,14.237-12.34,19.461a94.716,94.716,0,0,1-20.842,13.589,18.953,18.953,0,0,0,10.811,4.243A27.958,27.958,0,0,0,336.6,91.673c1.431-.85,2.826-1.76,4.234-2.647a2.577,2.577,0,0,1,3.9.688c1.422,1.952,2.867,3.888,4.275,5.85a2.808,2.808,0,0,1-.68,4.342c-12.675,9.539-30.985,11.706-43.382,4.895-3.5-1.924-6.461-4.835-10.091-7.616l-14.305,7.064c.9,5.37,2.276,10.323,2.454,15.319.556,15.653-5.612,31.859-21.943,39.418-9.825,4.548-19.441,3.01-25.738-4.459-5.67-6.725-6.031-14.588-3.775-22.674,2.472-8.859,8.012-15.627,15.282-21.025C251.019,107.717,255.375,104.829,260.109,101.524ZM34.815,74.565c.2,5.244.978,10.224,3.849,14.644,5.13,7.9,14.376,8.995,21.136,2.433,7.271-7.058,10.257-15.934,9.707-25.808A31.813,31.813,0,0,0,66.235,53.7c-4.2-8.388-13.255-10-20.6-4.165a21.042,21.042,0,0,0-2.858,2.781C37.278,58.746,35.107,66.373,34.815,74.565Zm134.961-.938c-.062,7.059.894,11.905,3.667,16.252,3.825,5.993,10.289,7.664,16.476,4.215a19.009,19.009,0,0,0,4.178-3.123c7.25-7.275,9.969-16.321,9.832-26.341A22.821,22.821,0,0,0,199.8,51.249c-3.844-5.314-9.879-6.778-15.646-3.651a20.514,20.514,0,0,0-4.775,3.554A34,34,0,0,0,169.776,73.627Zm99.3,36.439c-5.895,4.356-11.525,8.2-16.778,12.5a23.826,23.826,0,0,0-8.18,12.007,16.47,16.47,0,0,0-.579,7.095c1.341,7.269,9.093,9.6,15.4,4.624,6.431-5.073,9.81-12.042,11.348-19.949A29.052,29.052,0,0,0,269.077,110.066Zm33.191-29.078c9.183-5.046,17.842-10.314,23.768-18.91A20.174,20.174,0,0,0,329,54.516c.966-5.13-2.945-9.189-8.138-8.89-4.046.232-7.267,2.231-10.128,4.9-4.763,4.438-7.1,10.163-8.473,16.36A30.937,30.937,0,0,0,302.268,80.988Z"/></g></g></svg>